<mxfile host="app.diagrams.net" modified="2021-04-25T19:15:10.944Z" agent="5.0 (Windows NT 10.0; Win64; x64) AppleWebKit/537.36 (KHTML, like Gecko) Chrome/89.0.4389.114 Safari/537.36" etag="tehSuo_Nq2bIHay7kIEW" version="14.6.6" type="github">
  <diagram id="I3Vj88oq2dae0U0MhW8Q" name="Page-1">
    <mxGraphModel dx="1483" dy="783" grid="1" gridSize="10" guides="1" tooltips="1" connect="1" arrows="1" fold="1" page="1" pageScale="1" pageWidth="850" pageHeight="1100" math="0" shadow="0">
      <root>
        <mxCell id="0" />
        <mxCell id="1" parent="0" />
        <mxCell id="1uguabMBo1XT8htF6mJW-16" value="" style="ellipse;html=1;shape=startState;fillColor=#000000;strokeColor=#ff0000;" vertex="1" parent="1">
          <mxGeometry x="90" y="60" width="30" height="30" as="geometry" />
        </mxCell>
        <mxCell id="1uguabMBo1XT8htF6mJW-17" value="" style="edgeStyle=orthogonalEdgeStyle;html=1;verticalAlign=bottom;endArrow=open;endSize=8;strokeColor=#ff0000;" edge="1" source="1uguabMBo1XT8htF6mJW-16" parent="1">
          <mxGeometry relative="1" as="geometry">
            <mxPoint x="105" y="150" as="targetPoint" />
          </mxGeometry>
        </mxCell>
        <mxCell id="1uguabMBo1XT8htF6mJW-18" value="User" style="text;html=1;strokeColor=none;fillColor=none;align=center;verticalAlign=middle;whiteSpace=wrap;rounded=0;" vertex="1" parent="1">
          <mxGeometry x="85" y="10" width="40" height="20" as="geometry" />
        </mxCell>
        <mxCell id="1uguabMBo1XT8htF6mJW-19" value="System" style="text;html=1;strokeColor=none;fillColor=none;align=center;verticalAlign=middle;whiteSpace=wrap;rounded=0;" vertex="1" parent="1">
          <mxGeometry x="280" y="10" width="40" height="20" as="geometry" />
        </mxCell>
        <mxCell id="1uguabMBo1XT8htF6mJW-20" value="UI" style="text;html=1;strokeColor=none;fillColor=none;align=center;verticalAlign=middle;whiteSpace=wrap;rounded=0;" vertex="1" parent="1">
          <mxGeometry x="540" y="10" width="40" height="20" as="geometry" />
        </mxCell>
        <mxCell id="1uguabMBo1XT8htF6mJW-21" value="Select Recipe from Recipe-List" style="rounded=1;whiteSpace=wrap;html=1;arcSize=40;fontColor=#000000;fillColor=#ffffc0;strokeColor=#ff0000;" vertex="1" parent="1">
          <mxGeometry x="45" y="150" width="120" height="40" as="geometry" />
        </mxCell>
        <mxCell id="1uguabMBo1XT8htF6mJW-22" value="" style="edgeStyle=orthogonalEdgeStyle;html=1;verticalAlign=bottom;endArrow=open;endSize=8;strokeColor=#ff0000;" edge="1" source="1uguabMBo1XT8htF6mJW-21" parent="1">
          <mxGeometry relative="1" as="geometry">
            <mxPoint x="260" y="170" as="targetPoint" />
          </mxGeometry>
        </mxCell>
        <mxCell id="1uguabMBo1XT8htF6mJW-23" value="Load Recipe Details" style="rounded=1;whiteSpace=wrap;html=1;arcSize=40;fontColor=#000000;fillColor=#ffffc0;strokeColor=#ff0000;" vertex="1" parent="1">
          <mxGeometry x="260" y="150" width="120" height="40" as="geometry" />
        </mxCell>
        <mxCell id="1uguabMBo1XT8htF6mJW-24" value="" style="edgeStyle=orthogonalEdgeStyle;html=1;verticalAlign=bottom;endArrow=open;endSize=8;strokeColor=#ff0000;" edge="1" source="1uguabMBo1XT8htF6mJW-23" parent="1">
          <mxGeometry relative="1" as="geometry">
            <mxPoint x="520" y="170" as="targetPoint" />
          </mxGeometry>
        </mxCell>
        <mxCell id="1uguabMBo1XT8htF6mJW-25" value="Display Details" style="rounded=1;whiteSpace=wrap;html=1;arcSize=40;fontColor=#000000;fillColor=#ffffc0;strokeColor=#ff0000;" vertex="1" parent="1">
          <mxGeometry x="520" y="150" width="120" height="40" as="geometry" />
        </mxCell>
        <mxCell id="1uguabMBo1XT8htF6mJW-26" value="" style="edgeStyle=orthogonalEdgeStyle;html=1;verticalAlign=bottom;endArrow=open;endSize=8;strokeColor=#ff0000;entryX=1;entryY=0.5;entryDx=0;entryDy=0;" edge="1" source="1uguabMBo1XT8htF6mJW-25" parent="1" target="1uguabMBo1XT8htF6mJW-30">
          <mxGeometry relative="1" as="geometry">
            <mxPoint x="580" y="250" as="targetPoint" />
            <Array as="points">
              <mxPoint x="580" y="250" />
            </Array>
          </mxGeometry>
        </mxCell>
        <mxCell id="1uguabMBo1XT8htF6mJW-30" value="Toggle Favorite Icon" style="rounded=1;whiteSpace=wrap;html=1;arcSize=40;fontColor=#000000;fillColor=#ffffc0;strokeColor=#ff0000;" vertex="1" parent="1">
          <mxGeometry x="45" y="230" width="120" height="40" as="geometry" />
        </mxCell>
        <mxCell id="1uguabMBo1XT8htF6mJW-31" value="" style="edgeStyle=orthogonalEdgeStyle;html=1;verticalAlign=bottom;endArrow=open;endSize=8;strokeColor=#ff0000;entryX=0;entryY=0.5;entryDx=0;entryDy=0;" edge="1" source="1uguabMBo1XT8htF6mJW-30" parent="1" target="1uguabMBo1XT8htF6mJW-32">
          <mxGeometry relative="1" as="geometry">
            <mxPoint x="105" y="330" as="targetPoint" />
            <Array as="points">
              <mxPoint x="105" y="310" />
            </Array>
          </mxGeometry>
        </mxCell>
        <mxCell id="1uguabMBo1XT8htF6mJW-32" value="Current Favorite?" style="rhombus;whiteSpace=wrap;html=1;fillColor=#ffffc0;strokeColor=#ff0000;" vertex="1" parent="1">
          <mxGeometry x="290" y="290" width="120" height="40" as="geometry" />
        </mxCell>
        <mxCell id="1uguabMBo1XT8htF6mJW-33" value="no" style="edgeStyle=orthogonalEdgeStyle;html=1;align=left;verticalAlign=bottom;endArrow=open;endSize=8;strokeColor=#ff0000;entryX=0.5;entryY=0;entryDx=0;entryDy=0;" edge="1" source="1uguabMBo1XT8htF6mJW-32" parent="1" target="1uguabMBo1XT8htF6mJW-37">
          <mxGeometry x="-1" relative="1" as="geometry">
            <mxPoint x="410" y="310" as="targetPoint" />
            <Array as="points">
              <mxPoint x="420" y="310" />
            </Array>
          </mxGeometry>
        </mxCell>
        <mxCell id="1uguabMBo1XT8htF6mJW-34" value="yes" style="edgeStyle=orthogonalEdgeStyle;html=1;align=left;verticalAlign=top;endArrow=open;endSize=8;strokeColor=#ff0000;" edge="1" source="1uguabMBo1XT8htF6mJW-32" parent="1">
          <mxGeometry x="-1" relative="1" as="geometry">
            <mxPoint x="300" y="380" as="targetPoint" />
          </mxGeometry>
        </mxCell>
        <mxCell id="1uguabMBo1XT8htF6mJW-35" value="Unfavorize" style="rounded=1;whiteSpace=wrap;html=1;arcSize=40;fontColor=#000000;fillColor=#ffffc0;strokeColor=#ff0000;" vertex="1" parent="1">
          <mxGeometry x="240" y="380" width="120" height="40" as="geometry" />
        </mxCell>
        <mxCell id="1uguabMBo1XT8htF6mJW-36" value="" style="edgeStyle=orthogonalEdgeStyle;html=1;verticalAlign=bottom;endArrow=open;endSize=8;strokeColor=#ff0000;" edge="1" source="1uguabMBo1XT8htF6mJW-35" parent="1">
          <mxGeometry relative="1" as="geometry">
            <mxPoint x="610" y="400" as="targetPoint" />
            <Array as="points">
              <mxPoint x="300" y="490" />
              <mxPoint x="610" y="490" />
            </Array>
          </mxGeometry>
        </mxCell>
        <mxCell id="1uguabMBo1XT8htF6mJW-37" value="Favorize" style="rounded=1;whiteSpace=wrap;html=1;arcSize=40;fontColor=#000000;fillColor=#ffffc0;strokeColor=#ff0000;" vertex="1" parent="1">
          <mxGeometry x="360" y="380" width="120" height="40" as="geometry" />
        </mxCell>
        <mxCell id="1uguabMBo1XT8htF6mJW-38" value="" style="edgeStyle=orthogonalEdgeStyle;html=1;verticalAlign=bottom;endArrow=open;endSize=8;strokeColor=#ff0000;entryX=0.75;entryY=1;entryDx=0;entryDy=0;" edge="1" source="1uguabMBo1XT8htF6mJW-37" parent="1" target="1uguabMBo1XT8htF6mJW-25">
          <mxGeometry relative="1" as="geometry">
            <mxPoint x="420" y="480" as="targetPoint" />
          </mxGeometry>
        </mxCell>
        <mxCell id="1uguabMBo1XT8htF6mJW-40" value="Leave" style="rounded=1;whiteSpace=wrap;html=1;arcSize=40;fontColor=#000000;fillColor=#ffffc0;strokeColor=#ff0000;" vertex="1" parent="1">
          <mxGeometry x="45" y="330" width="120" height="40" as="geometry" />
        </mxCell>
        <mxCell id="1uguabMBo1XT8htF6mJW-41" value="" style="edgeStyle=orthogonalEdgeStyle;html=1;verticalAlign=bottom;endArrow=open;endSize=8;strokeColor=#ff0000;entryX=0;entryY=0.5;entryDx=0;entryDy=0;" edge="1" source="1uguabMBo1XT8htF6mJW-40" parent="1" target="1uguabMBo1XT8htF6mJW-44">
          <mxGeometry relative="1" as="geometry">
            <mxPoint x="105" y="430" as="targetPoint" />
            <Array as="points">
              <mxPoint x="105" y="530" />
            </Array>
          </mxGeometry>
        </mxCell>
        <mxCell id="1uguabMBo1XT8htF6mJW-43" value="" style="edgeStyle=orthogonalEdgeStyle;html=1;verticalAlign=bottom;endArrow=open;endSize=8;strokeColor=#ff0000;entryX=0.25;entryY=0;entryDx=0;entryDy=0;exitX=0.25;exitY=1;exitDx=0;exitDy=0;" edge="1" parent="1" source="1uguabMBo1XT8htF6mJW-25" target="1uguabMBo1XT8htF6mJW-40">
          <mxGeometry relative="1" as="geometry">
            <mxPoint x="175" y="260" as="targetPoint" />
            <mxPoint x="590" y="200" as="sourcePoint" />
            <Array as="points">
              <mxPoint x="550" y="220" />
              <mxPoint x="40" y="220" />
              <mxPoint x="40" y="290" />
              <mxPoint x="75" y="290" />
            </Array>
          </mxGeometry>
        </mxCell>
        <mxCell id="1uguabMBo1XT8htF6mJW-44" value="Load Recipe-Metainfo-List" style="rounded=1;whiteSpace=wrap;html=1;arcSize=40;fontColor=#000000;fillColor=#ffffc0;strokeColor=#ff0000;" vertex="1" parent="1">
          <mxGeometry x="260" y="510" width="120" height="40" as="geometry" />
        </mxCell>
        <mxCell id="1uguabMBo1XT8htF6mJW-45" value="" style="edgeStyle=orthogonalEdgeStyle;html=1;verticalAlign=bottom;endArrow=open;endSize=8;strokeColor=#ff0000;entryX=0;entryY=0.5;entryDx=0;entryDy=0;" edge="1" source="1uguabMBo1XT8htF6mJW-44" parent="1" target="1uguabMBo1XT8htF6mJW-46">
          <mxGeometry relative="1" as="geometry">
            <mxPoint x="320" y="610" as="targetPoint" />
          </mxGeometry>
        </mxCell>
        <mxCell id="1uguabMBo1XT8htF6mJW-51" style="edgeStyle=orthogonalEdgeStyle;rounded=0;orthogonalLoop=1;jettySize=auto;html=1;exitX=0.75;exitY=1;exitDx=0;exitDy=0;entryX=0.5;entryY=0;entryDx=0;entryDy=0;fillColor=#f8cecc;strokeColor=#b85450;" edge="1" parent="1" source="1uguabMBo1XT8htF6mJW-46" target="1uguabMBo1XT8htF6mJW-48">
          <mxGeometry relative="1" as="geometry">
            <Array as="points">
              <mxPoint x="610" y="590" />
              <mxPoint x="75" y="590" />
            </Array>
          </mxGeometry>
        </mxCell>
        <mxCell id="1uguabMBo1XT8htF6mJW-46" value="Display new state of Favorite-Recipe-List" style="rounded=1;whiteSpace=wrap;html=1;arcSize=40;fontColor=#000000;fillColor=#ffffc0;strokeColor=#ff0000;" vertex="1" parent="1">
          <mxGeometry x="520" y="510" width="120" height="40" as="geometry" />
        </mxCell>
        <mxCell id="1uguabMBo1XT8htF6mJW-47" value="" style="edgeStyle=orthogonalEdgeStyle;html=1;verticalAlign=bottom;endArrow=open;endSize=8;strokeColor=#ff0000;entryX=0;entryY=0.5;entryDx=0;entryDy=0;" edge="1" source="1uguabMBo1XT8htF6mJW-46" parent="1" target="1uguabMBo1XT8htF6mJW-21">
          <mxGeometry relative="1" as="geometry">
            <mxPoint x="580" y="610" as="targetPoint" />
            <Array as="points">
              <mxPoint x="580" y="580" />
              <mxPoint x="10" y="580" />
              <mxPoint x="10" y="170" />
            </Array>
          </mxGeometry>
        </mxCell>
        <mxCell id="1uguabMBo1XT8htF6mJW-48" value="" style="ellipse;html=1;shape=endState;fillColor=#000000;strokeColor=#ff0000;" vertex="1" parent="1">
          <mxGeometry x="60" y="610" width="30" height="30" as="geometry" />
        </mxCell>
      </root>
    </mxGraphModel>
  </diagram>
</mxfile>
